<?xml version="1.0" standalone="no"?>
<!DOCTYPE svg PUBLIC "-//W3C//DTD SVG 20010904//EN"
        "http://www.w3.org/TR/2001/REC-SVG-20010904/DTD/svg10.dtd">
<svg version="1.0" xmlns="http://www.w3.org/2000/svg"
     width="225.000000pt" height="224.000000pt" viewBox="0 0 225.000000 224.000000"
     preserveAspectRatio="xMidYMid meet">

    <g transform="translate(0.000000,224.000000) scale(0.100000,-0.100000)"
       fill="#0404d3" stroke="none"> <!-- Actualizado el color aquí -->
        <path d="M1050 2233 c-76 -8 -236 -46 -284 -67 -111 -50 -219 -156 -276 -272
l-32 -66 -52 6 c-28 3 -82 8 -121 12 l-70 6 -32 -54 c-49 -81 -87 -173 -118
-283 -26 -91 -28 -114 -28 -260 1 -226 34 -366 112 -477 63 -91 141 -159 226
-200 28 -12 52 -26 55 -30 3 -4 2 -57 -2 -119 -9 -127 -10 -125 67 -174 158
-101 474 -157 706 -126 122 16 253 65 307 114 12 11 22 18 22 14 0 -7 45 38
98 96 18 21 48 67 67 104 19 38 34 62 35 54 0 -11 3 -11 15 -1 10 9 42 10 118
5 l104 -7 20 28 c50 70 128 272 151 389 38 187 14 420 -58 580 -51 114 -158
221 -277 280 l-55 26 7 119 7 118 -43 32 c-161 117 -427 178 -669 153z m45
-23 c6 -10 -32 -15 -83 -12 -21 1 -22 -1 -10 -15 11 -14 10 -15 -7 -10 -50 15
-72 16 -100 3 -24 -12 -26 -15 -9 -15 11 -1 25 4 31 10 8 8 19 8 40 1 23 -9
24 -11 7 -11 -12 -1 -38 -8 -57 -16 -20 -8 -55 -15 -77 -15 -23 0 -39 -4 -35
-9 3 -5 0 -13 -6 -17 -7 -4 -9 -3 -5 4 9 15 -34 26 -48 12 -8 -10 -6 -11 12
-5 12 3 22 4 22 0 0 -7 -48 -27 -80 -32 -24 -4 -24 -4 -6 16 10 11 23 18 27
15 5 -3 9 -1 9 5 0 9 33 25 55 26 6 0 21 8 35 17 32 20 173 52 205 45 14 -2
25 0 25 4 0 12 47 11 55 -1z m122 3 c-20 -2 -52 -2 -70 0 -17 2 0 4 38 4 39 0
53 -2 32 -4z m-162 -43 c-3 -5 -14 -10 -23 -10 -15 0 -15 2 -2 10 20 13 33 13
25 0z m280 -121 c135 -23 270 -76 280 -110 4 -11 3 -64 -1 -117 -5 -53 -9
-103 -9 -111 0 -7 25 -22 55 -34 159 -58 271 -204 300 -390 29 -176 -2 -431
-68 -567 l-27 -55 -130 3 -130 3 -13 -44 c-26 -87 -123 -203 -211 -251 -27
-14 -85 -35 -128 -47 -196 -50 -570 -6 -664 79 l-30 27 11 95 c15 142 16 138
-27 150 -142 39 -264 172 -309 337 -22 82 -29 270 -15 378 14 106 64 264 93
295 20 21 26 22 132 15 61 -4 115 -8 120 -9 4 0 17 25 29 57 47 129 164 238
301 281 101 32 304 39 441 15z m-705 -3 c0 -2 -8 -10 -17 -17 -16 -13 -17 -12
-4 4 13 16 21 21 21 13z"/>
        <path d="M695 2099 c-3 -4 2 -6 10 -5 21 3 28 13 10 13 -9 0 -18 -4 -20 -8z"/>
        <path d="M1033 1889 c-107 -21 -184 -76 -226 -163 -52 -106 -29 -205 68 -294
50 -46 179 -122 188 -112 2 3 28 45 57 93 89 146 193 222 314 228 25 2 46 7
46 12 0 15 -61 98 -99 132 -48 46 -134 90 -199 104 -60 12 -88 13 -149 0z"/>
        <path d="M563 1535 c-67 -45 -136 -130 -164 -203 -32 -82 -31 -209 3 -284 51
-110 126 -167 233 -176 114 -9 193 47 288 203 20 33 37 65 37 71 0 6 -16 18
-35 27 -64 30 -173 107 -206 145 -44 50 -82 137 -87 200 -3 28 -7 52 -11 52
-3 0 -29 -16 -58 -35z"/>
        <path d="M1471 1489 c-81 -25 -156 -103 -232 -244 l-16 -29 85 -51 c98 -58
180 -132 210 -192 12 -23 27 -73 33 -112 l12 -71 40 23 c56 31 145 131 176
197 23 48 26 68 26 160 0 89 -4 113 -24 157 -53 119 -200 195 -310 162z"/>
        <path d="M1100 1009 c-62 -120 -147 -216 -226 -254 -21 -10 -68 -23 -107 -29
l-69 -12 44 -64 c79 -116 203 -183 338 -183 132 0 242 57 295 154 25 46 30 65
30 124 0 79 -20 118 -91 187 -36 34 -168 118 -186 118 -4 0 -17 -18 -28 -41z"/>
    </g>
</svg>
